<svg width="32" height="32" viewBox="0 0 32 32" fill="none" xmlns="http://www.w3.org/2000/svg">
<path d="M31.524 6.58268C30.4107 7.07601 29.2147 7.40934 27.9573 7.56001C29.24 6.79201 30.224 5.57334 30.688 4.12268C29.488 4.83468 28.1587 5.35201 26.744 5.62934C25.6107 4.42401 23.9973 3.66934 22.2107 3.66934C18.7813 3.66934 16 6.45068 16 9.88268C16 10.368 16.056 10.84 16.16 11.296C10.996 11.036 6.42133 8.56268 3.35733 4.80534C2.824 5.72534 2.51733 6.79201 2.51733 7.92801C2.51733 10.0827 3.61466 11.9853 5.28 13.0987C4.26133 13.0653 3.304 12.7867 2.46666 12.3213V12.4013C2.46666 15.4107 4.60666 17.9213 7.44933 18.492C6.92666 18.6333 6.37866 18.708 5.81333 18.708C5.41333 18.708 5.02266 18.6707 4.644 18.5987C5.43466 21.0653 7.728 22.8627 10.4467 22.9107C8.32 24.5773 5.64133 25.5707 2.732 25.5707C2.23066 25.5707 1.736 25.5413 1.24933 25.484C3.99866 27.248 7.26266 28.2747 10.7693 28.2747C22.196 28.2747 28.4427 18.8107 28.4427 10.6027C28.4427 10.336 28.436 10.0667 28.424 9.80001C29.6373 8.92267 30.6907 7.83068 31.5213 6.58668L31.524 6.58268Z" fill="#1DA1F2"/>
</svg>
